{"title":"Black Mass (2015) 720p Blurred Subtitles-BDM","uid":12531673,"size":968278270,"categoryP":"video","categoryS":"hd___movies","magnet":"?xt=urn:btih:a9d77a4f5d1151feb40251bc9797d2d7de242d48&amp;dn=Black+Mass+%282015%29+720p+Blurred+Subtitles-BDM&amp;tr=udp%3A%2F%2Ftracker.leechers-paradise.org%3A6969&amp;tr=udp%3A%2F%2Fzer0day.ch%3A1337&amp;tr=udp%3A%2F%2Fopen.demonii.com%3A1337&amp;tr=udp%3A%2F%2Ftracker.coppersurfer.tk%3A6969&amp;tr=udp%3A%2F%2Fexodus.desync.com%3A6969","seeders":0,"leechers":0,"uploader":"BigDogMoya","files":2,"time":1444268146,"description":"I would like to thank the original up-loaders for their time and effort uploading these movies! It is much appreciated.\r\n\r\n\r\nIMBD Link \nhttp://www.imdb.com/title/tt1355683\r\n\r\n\r\nMedia Info:\r\nVideo\r\nID : 1\r\nFormat : AVC\r\nFormat/Info : Advanced Video Codec\r\nFormat profile :   \r\nFormat settings, CABAC : Yes\r\nFormat settings, ReFrames : 4 frames\r\nCodec ID : avc1\r\nCodec ID/Info : Advanced Video Coding\r\nDuration : 2h 2mn\r\nBit rate : 935 Kbps\r\nMaximum bit rate : 4 069 Kbps\r\nWidth : 1 280 pixels\r\nHeight : 528 pixels\r\nDisplay aspect ratio : 2.40:1\r\nFrame rate mode : Constant\r\nFrame rate : 23.976 fps\r\nColor space : YUV\r\nChroma subsampling : 4:2:0\r\nBit depth : 8 bits\r\nScan type : Progressive\r\nBits/(Pixel*Frame) : 0.058\r\nStream size : 819 MiB (90%)\r\nWriting library : x264 core 146 r2538kMod 121396c\r\n\r\nAudio\r\nID : 2\r\nFormat : AAC\r\nFormat/Info : Advanced Audio Codec\r\nFormat profile : LC\r\nCodec ID : 40\r\nDuration : 2h 2mn\r\nBit rate mode : Variable\r\nBit rate : 103 Kbps\r\nChannel(s) : 2 channels\r\nChannel positions : Front: L R\r\nSampling rate : 48.0 KHz\r\nCompression mode : Lossy\r\nStream size : 90.6 MiB (10%)\r\n\r\n\r\nScreen Shots:\r\n  \nhttp://i.imgur.com/Xf6Jv8r.png\r\n  \nhttp://i.imgur.com/zqq9swZ.png\r\n  \nhttp://i.imgur.com/dxyQ1k0.png\r\n  \nhttp://i.imgur.com/pQhxQNo.png\r\n  \nhttp://i.imgur.com/wAD7vKZ.png\r\n\r\n\r\nAlso included a sample, enjoy.\t\t\t\r\n\r\n\r\nTutorial on how I blur subtitles here.\r\n  \nhttps://pirates-forum.org/Thread-How-To-Blur-Subtitles-Like-a-Pro-The-Easy-Way","torrent":{"xt":"urn:btih:a9d77a4f5d1151feb40251bc9797d2d7de242d48","amp;dn":"Black+Mass+%282015%29+720p+Blurred+Subtitles-BDM","amp;tr":["udp%3A%2F%2Ftracker.leechers-paradise.org%3A6969","udp%3A%2F%2Fzer0day.ch%3A1337","udp%3A%2F%2Fopen.demonii.com%3A1337","udp%3A%2F%2Ftracker.coppersurfer.tk%3A6969","udp%3A%2F%2Fexodus.desync.com%3A6969"],"infoHash":"a9d77a4f5d1151feb40251bc9797d2d7de242d48","infoHashBuffer":{"type":"Buffer","data":[169,215,122,79,93,17,81,254,180,2,81,188,151,151,210,215,222,36,45,72]},"announce":[],"urlList":[]}}